<?xml version="1.0" encoding="utf-8"?>
<!-- Generator: Adobe Illustrator 26.0.3, SVG Export Plug-In . SVG Version: 6.00 Build 0)  -->
<svg version="1.1" xmlns="http://www.w3.org/2000/svg" xmlns:xlink="http://www.w3.org/1999/xlink" x="0px" y="0px"
	 viewBox="0 0 1024 768" style="enable-background:new 0 0 1024 768;" xml:space="preserve">
<style type="text/css">
	.st0{fill:#FF0000;}
	.st1{fill:none;}
	.st2{fill:none;stroke:#FF0000;stroke-width:7;stroke-miterlimit:10;}
	.st3{fill:#FF0000;stroke:#FF0000;stroke-width:6;stroke-miterlimit:10;}
	.st4{fill:#FF0000;stroke:#FF0000;stroke-width:0.25;stroke-miterlimit:10;}
	.st5{fill:#FF0000;stroke:#FF0000;stroke-width:3;stroke-miterlimit:10;}
</style>
<g id="Слой_1">
	<g>
		<path class="st0" d="M339.09,672l-1.1-9.58h-0.47c-4.24,5.97-12.4,11.3-23.24,11.3c-15.39,0-23.24-10.83-23.24-21.82
			c0-18.37,16.33-28.42,45.69-28.26v-1.57c0-6.28-1.73-17.58-17.27-17.58c-7.06,0-14.44,2.2-19.78,5.65l-3.14-9.11
			c6.28-4.08,15.39-6.75,24.96-6.75c23.24,0,28.89,15.86,28.89,31.09v28.42c0,6.59,0.31,13.03,1.26,18.21H339.09z M337.05,633.22
			c-15.07-0.31-32.18,2.35-32.18,17.11c0,8.95,5.97,13.19,13.03,13.19c9.89,0,16.17-6.28,18.37-12.72c0.47-1.41,0.78-2.98,0.78-4.4
			V633.22z"/>
		<path class="st0" d="M372.69,616.58c0-7.85-0.16-14.29-0.63-20.57h12.25l0.79,12.56h0.31c3.77-7.22,12.56-14.29,25.12-14.29
			c10.52,0,26.85,6.28,26.85,32.34V672h-13.82v-43.8c0-12.25-4.55-22.45-17.58-22.45c-9.11,0-16.17,6.44-18.53,14.13
			c-0.63,1.73-0.94,4.08-0.94,6.44V672h-13.82V616.58z"/>
		<path class="st0" d="M523.41,651.28c0,7.85,0.16,14.76,0.63,20.72h-12.25L511,659.6h-0.31c-3.61,6.12-11.62,14.13-25.12,14.13
			c-11.93,0-26.22-6.59-26.22-33.28v-44.43h13.82v42.08c0,14.44,4.4,24.18,16.96,24.18c9.26,0,15.7-6.44,18.21-12.56
			c0.79-2.04,1.26-4.55,1.26-7.06v-46.63h13.82V651.28z"/>
		<path class="st0" d="M545.7,672c0.31-5.18,0.63-12.87,0.63-19.62v-91.84h13.66v47.73h0.31c4.87-8.48,13.66-13.97,25.9-13.97
			c18.84,0,32.18,15.7,32.03,38.78c0,27.16-17.11,40.66-34.07,40.66c-10.99,0-19.78-4.24-25.43-14.29h-0.47L557.63,672H545.7z
			 M559.99,641.54c0,1.73,0.31,3.45,0.63,5.02c2.67,9.58,10.68,16.17,20.72,16.17c14.44,0,23.08-11.78,23.08-29.2
			c0-15.23-7.85-28.26-22.61-28.26c-9.42,0-18.21,6.44-21.04,16.96c-0.31,1.57-0.79,3.45-0.79,5.65V641.54z"/>
		<path class="st0" d="M651.05,574.66c0.16,4.71-3.3,8.48-8.79,8.48c-4.87,0-8.32-3.77-8.32-8.48c0-4.87,3.61-8.63,8.63-8.63
			C647.75,566.03,651.05,569.79,651.05,574.66z M635.66,672v-75.99h13.82V672H635.66z"/>
		<path class="st0" d="M670.51,657.87c4.08,2.67,11.3,5.5,18.21,5.5c10.05,0,14.76-5.02,14.76-11.3c0-6.59-3.92-10.21-14.13-13.97
			c-13.66-4.87-20.1-12.4-20.1-21.51c0-12.25,9.89-22.29,26.22-22.29c7.69,0,14.44,2.2,18.68,4.71l-3.45,10.05
			c-2.98-1.88-8.48-4.4-15.54-4.4c-8.16,0-12.72,4.71-12.72,10.36c0,6.28,4.55,9.11,14.44,12.87c13.19,5.02,19.94,11.62,19.94,22.92
			c0,13.34-10.36,22.76-28.42,22.76c-8.32,0-16.01-2.04-21.35-5.18L670.51,657.87z"/>
	</g>
	<rect x="139.1" y="655.22" class="st1" width="13.9" height="0"/>
	<polygon class="st2" points="284,304 409,265 430,236 430,96.41 447.92,109 479,200.2 479,96.41 497.93,108.26 513.22,147.3 
		529.55,189 591.27,189 648.01,246 707.74,517 599.23,440 475.46,517 398.04,517 452,409 435,349 320,351 284,323.37 	"/>
	<path class="st3" d="M479.22,200.2"/>
	<polyline class="st0" points="476.99,210.12 476.99,239.5 413.53,258.74 410,269 459,283 519.52,283 552.5,252.26 552.5,236.85 
		534.93,189 479.22,193.59 476.99,210.12 	"/>
	<polygon class="st0" points="415.81,346.15 398.63,346.15 291.05,328.78 287,319 410,306.7 	"/>
	<polygon class="st0" points="343,311 291.05,301.8 284,304 284,306.7 325,315.2 	"/>
	<polygon class="st0" points="287,319 462.33,283 519.52,283 438.33,346.15 415.81,346.15 	"/>
	<polygon class="st0" points="454.75,410.78 516.7,285.19 438.33,346.15 	"/>
	<polyline class="st0" points="552.5,316.5 504.27,268.11 498.23,272.56 560.22,334.61 552.5,316.5 	"/>
	<polygon class="st0" points="552.5,252.26 589,288 595.22,283 541,228 	"/>
</g>
<g id="Слой_2">
	<polygon class="st4" points="604.5,438.5 552.5,316.5 549.5,323.5 472.11,517 	"/>
	<polygon class="st5" points="644.98,242.95 592.5,279.5 552.5,316.5 563.64,342.64 693.3,506.75 707.74,517 	"/>
	<polygon class="st5" points="479.5,208.5 431.5,239.5 430,96.41 447.92,109 	"/>
	<polyline class="st5" points="479,96.41 497.93,108.26 529.55,189 479.22,200.2 	"/>
	<polygon class="st5" points="557.82,245.06 593.91,191.65 584.56,191.65 552.5,239.5 	"/>
</g>
</svg>
